<svg width="32" height="32" viewBox="0 0 32 32" fill="none" xmlns="http://www.w3.org/2000/svg">
<rect width="32" height="32" fill="black"/>
<path d="M5 14.808V12.792H9.008V8.808H5V6.792H9.008V2.808H11V6.792H15.008V8.808H11V12.792H15.008V14.808H11V16.8H15.008V18.792H11V22.8H12.992V24.792H27.008V26.808H12.992V24.792H6.992V26.808H5V18.792H6.992V22.8H9.008V14.808H5ZM23 12.792V10.8H24.992V6.792H23V8.808H21.008V10.8H18.992V12.792H17V10.8H18.992V8.808H21.008V6.792H17V4.8H27.008V12.792H23ZM27.008 22.8H17V14.808H27.008V22.8ZM18.992 20.808H24.992V16.8H18.992V20.808Z" fill="white"/>
</svg>
